<svg id="图层_1" data-name="图层 1" xmlns="http://www.w3.org/2000/svg" viewBox="0 0 32.36 33.97"><defs><style>.cls-1{fill:#facc1f;}.cls-2{fill:#354f99;}.cls-3{fill:#37aa85;}</style></defs><title>matchy_logo</title><path class="cls-1" d="M10.62,5.64A1.83,1.83,0,0,1,8.84,3.73V1.8A1.73,1.73,0,0,1,10.62,0a1.72,1.72,0,0,1,1.66,1.8V3.85A1.78,1.78,0,0,1,10.62,5.64Z"/><path class="cls-1" d="M22,5.64a1.83,1.83,0,0,1-1.77-1.91V1.8a1.72,1.72,0,1,1,3.43,0V3.85A1.77,1.77,0,0,1,22,5.64Z"/><path class="cls-1" d="M26.16,1.71H24.67c0,.06,0,.12,0,.18V4.32A2.73,2.73,0,0,1,22,7a2.78,2.78,0,0,1-2.82-2.79V1.89c0-.06,0-.12,0-.18H13.25c0,.06,0,.12,0,.18V4.32A2.73,2.73,0,0,1,10.59,7,2.78,2.78,0,0,1,7.76,4.18V1.89c0-.06,0-.12,0-.18H6.29A6.2,6.2,0,0,0,.09,7.9V27.78A6.2,6.2,0,0,0,6.29,34H26.16a6.2,6.2,0,0,0,6.2-6.19V7.9A6.2,6.2,0,0,0,26.16,1.71Z"/><path class="cls-2" d="M18.51,24.3l-8.34,2.94a1,1,0,0,1-1.29-.59l-4.59-13a1.05,1.05,0,0,1,.59-1.29l8.34-2.94a1.06,1.06,0,0,1,1.3.59L19.1,23A1,1,0,0,1,18.51,24.3Z"/><path class="cls-3" d="M14.5,27.21l8.34,2.93a1,1,0,0,0,1.29-.58l4.59-13a1,1,0,0,0-.59-1.29l-8.46-2.94a1,1,0,0,0-1.29.59l-4.59,13A1.13,1.13,0,0,0,14.5,27.21Z"/></svg>